<svg width="43" height="59" viewBox="0 0 43 59" fill="none" xmlns="http://www.w3.org/2000/svg">
<path d="M1.66886 21.9379C1.50886 9.13793 9.50886 1.37793 21.9889 1.37793C33.9889 1.37793 42.1489 8.33793 42.1489 18.9779C42.1489 26.5779 37.6689 32.4979 28.7089 36.9779L19.9089 41.4579C17.1089 42.8979 13.8289 44.9779 13.8289 47.6179H41.9889V58.0179H1.98886L1.90886 49.1379C1.82886 40.4179 9.34886 34.6579 14.5489 32.0979L23.6689 27.5379C27.6689 25.6179 30.0689 22.7379 30.0689 18.9779C30.0689 14.2579 27.0289 11.1379 21.9889 11.1379C16.5489 11.1379 13.5889 15.5379 13.7489 21.9379H1.66886Z" fill="#F2DB00" stroke="black" stroke-width="1.5"/>
</svg>
