<svg width="45" height="60" viewBox="0 0 45 60" fill="none" xmlns="http://www.w3.org/2000/svg">
<path d="M22.3735 58.6579C10.7735 58.6579 1.3335 51.8579 1.3335 40.3379H12.9335C12.9335 45.6179 17.2535 48.2579 22.3735 48.2579C27.9735 48.2579 31.4935 45.5379 31.4935 41.0579C31.4935 36.7379 27.9735 34.0979 22.3735 34.0979H17.0935V24.2579H22.1335C26.5335 24.2579 29.4135 21.6179 29.4135 17.8579C29.4135 14.0979 26.2935 11.6979 21.5735 11.6979C17.0935 11.6979 13.7335 13.9379 13.6535 19.1379H2.2935C2.3735 7.93793 11.6535 1.37793 21.8135 1.37793C32.8535 1.37793 41.0935 8.25793 41.0935 16.5779C41.0935 21.7779 38.4535 26.2579 34.4535 28.4979C39.8935 30.4979 43.4135 35.2979 43.4135 41.3779C43.4135 52.2579 33.6535 58.6579 22.3735 58.6579Z" fill="#E34AE5" stroke="black" stroke-width="1.5"/>
</svg>
